<svg xmlns="http://www.w3.org/2000/svg" viewBox="0 0 100 100" fill="none">
  <!-- Document with folded top-right corner -->
  <path d="M15 8 L57 8 L72 23 L72 83 Q72 89 66 89 L15 89 Q9 89 9 83 L9 14 Q9 8 15 8 Z"
        fill="white" stroke="#243782" stroke-width="4.5" stroke-linejoin="round"/>
  <path d="M57 8 L57 23 L72 23"
        stroke="#243782" stroke-width="4.5" stroke-linejoin="round" fill="none"/>
  <!-- Person head -->
  <circle cx="40" cy="27" r="9" fill="#E8175D"/>
  <!-- Person body -->
  <path d="M25 50 Q25 39 40 39 Q55 39 55 50 Z" fill="#E8175D"/>
  <!-- Text lines -->
  <line x1="21" y1="60" x2="62" y2="60" stroke="#243782" stroke-width="5" stroke-linecap="round"/>
  <line x1="21" y1="72" x2="62" y2="72" stroke="#243782" stroke-width="5" stroke-linecap="round"/>
  <!-- Teal checkmark circle -->
  <circle cx="72" cy="78" r="22" fill="#4BC8C2"/>
  <polyline points="62,79 69.5,87 84,68"
            fill="none" stroke="white" stroke-width="5.5"
            stroke-linecap="round" stroke-linejoin="round"/>
</svg>
